# xmcd
#
# Track frame offsets: 
#        150
#        13125
#        26872
#        39632
#        52748
#        66427
#        80401
#        93780
#        107740
#        121378
#        134044
#        145660
#        159254
#        169839
#        181952
#        192406
#        204556
#        218772
#        237860
#        248107
#        258579
#        269064
#        283846
#        297520
#        307564
#        320952
#
# Disc length: 4479 seconds
#
# Revision: 0
# Processed by: cddbd v1.5.2PL0 Copyright (c) Steve Scherf et al.
# Submitted via: ExactAudioCopyFreeDBPlugin 1.0
#
DISCID=8b117d1a
DTITLE=B.B. King - Singin' the blues
DYEAR=2012
DGENRE=Blues
TTITLE0=Please love me
TTITLE1=You upset me baby
TTITLE2=Everyday I have the blues
TTITLE3=Bad luck
TTITLE4=3 o'clock blues
TTITLE5=Blind love
TTITLE6=Voke up this morning
TTITLE7=You know I love you
TTITLE8=Sweet little angle
TTITLE9=Ten long years
TTITLE10=Did you ever love a woman
TTITLE11=Crying won't help you
TTITLE12=Bad case of love
TTITLE13=Get out of here
TTITLE14=Bad luck soul
TTITLE15=Shut your mouth
TTITLE16=Baby, look at you
TTITLE17=You're breaking my heart
TTITLE18=My reward
TTITLE19=Don't cry anymore
TTITLE20=Blues for me (aka. Groovin' twist)
TTITLE21=(Ain't that) Just like a woman
TTITLE22=Ruby Lee
TTITLE23=Jump with you baby
TTITLE24=Lonely and blue
TTITLE25=Yes, indeed
EXTD=
EXTT0=
EXTT1=
EXTT2=
EXTT3=
EXTT4=
EXTT5=
EXTT6=
EXTT7=
EXTT8=
EXTT9=
EXTT10=
EXTT11=
EXTT12=
EXTT13=
EXTT14=
EXTT15=
EXTT16=
EXTT17=
EXTT18=
EXTT19=
EXTT20=
EXTT21=
EXTT22=
EXTT23=
EXTT24=
EXTT25=
PLAYORDER=
